<?xml version="1.0" encoding="utf-8"?>
<!-- Generator: Adobe Illustrator 23.0.6, SVG Export Plug-In . SVG Version: 6.00 Build 0)  -->
<svg version="1.1" id="Layer_1" xmlns="http://www.w3.org/2000/svg" xmlns:xlink="http://www.w3.org/1999/xlink" x="0px" y="0px"
	 viewBox="0 0 122 38.8" style="enable-background:new 0 0 122 38.8;" xml:space="preserve">
<style type="text/css">
	.st0{fill:#FFFFFF;}
</style>
<path class="st0" d="M28.7,28.1c0,6.8-5.7,10.7-16.4,10.7H0.8C0.3,38.8,0,38.4,0,38V0.8C0,0.3,0.3,0,0.8,0h10.4
	c10.7,0,15.7,4.3,15.7,10.1c0,3.1-1.4,5.8-4.1,7.6c-0.5,0.3-0.4,1.1,0.1,1.3C26.5,20.9,28.7,24,28.7,28.1z M51.4,12.4
	c0,2.8-2.3,4.4-6.7,4.4h-8.9V1h8.4c4.4,0,6.4,1.7,6.4,4.1c0,1.5-0.7,2.7-2.2,3.4C50.3,9.2,51.4,10.5,51.4,12.4z M41.1,4.7V7h2.5
	c1.2,0,1.7-0.4,1.7-1.2s-0.5-1.2-1.7-1.2C43.5,4.7,41.1,4.7,41.1,4.7z M46,11.8c0-0.8-0.6-1.2-1.8-1.2H41V13h3.2
	C45.4,13,46,12.6,46,11.8z M66.6,4.4v12.3h-4.9v-1.2c-0.9,1-2.2,1.4-3.5,1.4c-3,0-5.2-1.7-5.2-5.8V4.4h5.1v5.9
	c0,1.8,0.6,2.4,1.6,2.4c0.9,0,1.7-0.7,1.7-2.5V4.4H66.6z M68.2,10.6c0-3.8,3-6.4,7.3-6.4c3,0,5.3,1.4,6.1,3.7l-4,1.9
	c-0.5-1.2-1.3-1.6-2.2-1.6c-1.2,0-2.1,0.8-2.1,2.4s1,2.4,2.1,2.4c0.9,0,1.6-0.5,2.2-1.6l4,1.9c-0.8,2.3-3.1,3.7-6.1,3.7
	C71.2,17,68.2,14.3,68.2,10.6z M88.6,12.9l-0.8,0.9v2.9h-5.1V0h5.1v8l3.5-3.6h6l-5.1,5.3l5.5,7h-6.2L88.6,12.9z M111.2,11.7h-8.6
	c0.4,1,1.2,1.4,2.5,1.4c1.1,0,1.8-0.3,2.6-0.9l2.7,2.7c-1.2,1.3-2.9,2-5.4,2c-4.5,0-7.5-2.7-7.5-6.4c0-3.8,3-6.4,7-6.4
	c3.7,0,6.8,2.2,6.8,6.4C111.3,10.9,111.3,11.4,111.2,11.7z M102.6,9.3h4c-0.2-1-0.9-1.7-2-1.7C103.5,7.6,102.8,8.3,102.6,9.3z
	 M122,16.3c-0.8,0.5-1.9,0.7-3.1,0.7c-3.4,0-5.4-1.6-5.4-5V8.8h-1.7V5.1h1.7V1.6h5.1v3.5h2.5v3.7h-2.5v3.1c0,0.8,0.5,1.2,1.1,1.2
	c0.4,0,0.8-0.1,1.2-0.3L122,16.3z M51.4,32.3c0,2.8-2.3,4.4-6.7,4.4h-8.9V20.8h8.4c4.4,0,6.4,1.7,6.4,4.1c0,1.5-0.7,2.7-2.2,3.4
	C50.3,29,51.4,30.4,51.4,32.3z M41.1,24.5v2.4h2.5c1.2,0,1.7-0.4,1.7-1.2s-0.5-1.2-1.7-1.2L41.1,24.5L41.1,24.5z M46,31.7
	c0-0.8-0.6-1.2-1.8-1.2H41V33h3.2C45.4,32.9,46,32.5,46,31.7z M52.4,30.4c0-3.8,3-6.4,7.2-6.4s7.2,2.6,7.2,6.4s-3,6.4-7.2,6.4
	S52.4,34.2,52.4,30.4z M61.6,30.4c0-1.6-0.9-2.4-2-2.4s-2,0.8-2,2.4s0.9,2.4,2,2.4C60.7,32.9,61.6,32,61.6,30.4z M67.7,30.4
	c0-3.8,3-6.4,7.2-6.4s7.2,2.6,7.2,6.4s-3,6.4-7.2,6.4S67.7,34.2,67.7,30.4z M76.9,30.4c0-1.6-0.9-2.4-2-2.4s-2,0.8-2,2.4
	s0.9,2.4,2,2.4C76,32.9,76.9,32,76.9,30.4z M89.6,32.8l-0.8,0.9v2.9h-5.1V19.9h5.1v8l3.5-3.6h6l-5.1,5.3l5.5,7h-6.2L89.6,32.8z"/>
</svg>
